<svg width="250" height="32" fill="none" xmlns="http://www.w3.org/2000/svg"><g clip-path="url(#clip0)"><path d="M130.3 2.383h2.943l-5.856 21.95h-2.884L119.78 9.867h-.113l-4.73 14.466h-2.884l-6.103-21.95h2.943l4.634 17.284h.12L118.4 5.333h2.64l4.75 14.334h.123L130.3 2.383zM132.977 16.827c0-2.311.725-4.223 2.176-5.734a7.428 7.428 0 015.55-2.27 7.336 7.336 0 015.52 2.27c1.474 1.514 2.21 3.425 2.21 5.734s-.736 4.22-2.21 5.736a7.312 7.312 0 01-5.52 2.267 7.42 7.42 0 01-5.55-2.267c-1.449-1.513-2.174-3.425-2.176-5.736zm2.82 0c0 1.615.471 2.924 1.413 3.926a4.811 4.811 0 007 0c.94-1.002 1.41-2.31 1.41-3.926s-.473-2.914-1.42-3.894a4.752 4.752 0 00-7 0c-.936 1-1.403 2.298-1.403 3.894zM153.257 24.333h-2.82V9.313h2.696v2.454h.124c.339-.86.961-1.58 1.763-2.04a4.915 4.915 0 012.623-.844 5.26 5.26 0 012.084.37L158.87 12a4.668 4.668 0 00-1.667-.217 3.664 3.664 0 00-2.776 1.29 4.296 4.296 0 00-1.18 3l.01 8.26zM174.25 24.333h-3.403l-4.694-7.076-2.3 2.27v4.806h-2.82V2.383h2.82v13.524l6.504-6.594h3.616v.124l-5.856 5.826 6.133 8.954v.116z" fill="#5F6368"/><path d="M186.46 20.17c0 1.311-.573 2.416-1.72 3.313-1.147.898-2.591 1.343-4.333 1.334a6.867 6.867 0 01-4-1.18 6.506 6.506 0 01-2.454-3.114l2.517-1.073a4.661 4.661 0 001.61 2.103 3.909 3.909 0 002.337.78 4.068 4.068 0 002.25-.6c.604-.386.906-.846.906-1.38 0-.96-.736-1.665-2.21-2.116l-2.573-.644c-2.927-.735-4.389-2.145-4.387-4.23a3.912 3.912 0 011.667-3.297c1.117-.83 2.54-1.243 4.28-1.243a6.961 6.961 0 013.603.95 5.163 5.163 0 012.26 2.56l-2.513 1.044a3.195 3.195 0 00-1.397-1.49 4.38 4.38 0 00-2.163-.554 3.644 3.644 0 00-1.977.554 1.585 1.585 0 00-.873 1.333c0 .858.808 1.471 2.423 1.84l2.267.583c2.987.747 4.48 2.256 4.48 4.527zM196.257 24.83a6.467 6.467 0 01-3.02-.703 5.314 5.314 0 01-2.104-1.87H191l.133 2.076v6.63h-2.82V9.313H191V11.4h.12a5.312 5.312 0 012.103-1.87 6.668 6.668 0 018.05 1.623 8.217 8.217 0 012.114 5.667 8.133 8.133 0 01-2.114 5.667 6.451 6.451 0 01-5.016 2.343zm-.46-2.573a4.401 4.401 0 003.403-1.534c.92-1.004 1.38-2.303 1.38-3.896a5.602 5.602 0 00-1.38-3.894 4.577 4.577 0 00-5.294-1.132 4.587 4.587 0 00-1.546 1.132 5.665 5.665 0 00-1.333 3.894 5.717 5.717 0 001.333 3.926 4.475 4.475 0 003.437 1.504zM211.13 8.823c2.084 0 3.73.556 4.937 1.667 1.206 1.111 1.81 2.64 1.81 4.587v9.256h-2.7v-2.076h-.124c-1.164 1.717-2.72 2.575-4.666 2.573a6.07 6.07 0 01-4.157-1.47 4.702 4.702 0 01-1.667-3.667 4.467 4.467 0 011.77-3.723c1.176-.92 2.745-1.38 4.707-1.38 1.675 0 3.055.307 4.14.92v-.647a3.205 3.205 0 00-1.18-2.496 4.001 4.001 0 00-2.717-1.034 4.334 4.334 0 00-3.743 2l-2.483-1.563c1.371-1.964 3.395-2.947 6.073-2.947zm-3.65 10.917a2.239 2.239 0 00.937 1.84 3.439 3.439 0 002.19.753A4.503 4.503 0 00213.783 21a4.132 4.132 0 001.394-3.097c-.889-.693-2.111-1.04-3.667-1.043a4.776 4.776 0 00-2.867.83 2.455 2.455 0 00-1.163 2.05zM227.44 24.83a7.419 7.419 0 01-5.55-2.267 8.079 8.079 0 01-2.177-5.736c0-2.311.726-4.223 2.177-5.734a7.417 7.417 0 015.55-2.27 6.881 6.881 0 016.593 4.334l-2.576 1.073c-.796-1.88-2.196-2.82-4.2-2.82a4.361 4.361 0 00-3.334 1.563 5.634 5.634 0 00-1.38 3.864 5.623 5.623 0 001.38 3.863 4.365 4.365 0 003.334 1.567c2.064 0 3.515-.941 4.353-2.824l2.517 1.074a6.73 6.73 0 01-2.594 3.15 7.332 7.332 0 01-4.093 1.163zM242.623 24.83a7.19 7.19 0 01-5.46-2.267c-1.429-1.513-2.144-3.425-2.146-5.736-.003-2.311.693-4.218 2.086-5.72a6.918 6.918 0 015.334-2.284c2.222 0 4 .721 5.333 2.164 1.333 1.442 1.992 3.46 1.977 6.056l-.03.307H237.9a4.89 4.89 0 001.473 3.557 4.702 4.702 0 003.374 1.333c1.797 0 3.207-.9 4.23-2.7l2.516 1.227a7.493 7.493 0 01-2.806 2.973 7.751 7.751 0 01-4.064 1.09zm-4.506-9.813h8.616a3.756 3.756 0 00-1.273-2.59c-.767-.685-1.794-1.027-3.083-1.027a4.09 4.09 0 00-2.744.98 4.666 4.666 0 00-1.516 2.637z" fill="#5F6368"/><path d="M12.587 24.826C5.747 24.826 0 19.253 0 12.413S5.747 0 12.587 0a11.816 11.816 0 018.5 3.42l-2.39 2.393a8.637 8.637 0 00-6.11-2.423 8.9 8.9 0 00-8.897 9.023 8.9 8.9 0 008.897 9.02c3.236 0 5.08-1.3 6.26-2.48.97-.97 1.603-2.363 1.846-4.27h-8.196v-3.39H24c.13.698.192 1.407.183 2.117 0 2.543-.696 5.693-2.936 7.933-2.187 2.27-4.97 3.483-8.66 3.483z" fill="#4285F4"/><path d="M41.387 16.833a8 8 0 11-13.655-5.662 8.008 8.008 0 0113.671 5.662h-.016zm-3.507 0c0-2.876-2.083-4.843-4.5-4.843s-4.503 1.967-4.503 4.843c0 2.877 2.086 4.834 4.503 4.834 2.417 0 4.5-2 4.5-4.834z" fill="#EA4335"/><path d="M58.817 16.833a8 8 0 11-16 0 8 8 0 0116 0zm-3.507 0c0-2.876-2.083-4.843-4.5-4.843s-4.503 1.967-4.503 4.843c0 2.877 2.083 4.834 4.503 4.834s4.5-2 4.5-4.834z" fill="#FBBC04"/><path d="M75.49 9.333v14.334c0 5.903-3.48 8.333-7.593 8.333a7.61 7.61 0 01-7.08-4.723L63.873 26c.544 1.3 1.874 2.843 4.024 2.843 2.63 0 4.266-1.633 4.266-4.69V23h-.123a5.45 5.45 0 01-4.203 1.817c-4 0-7.667-3.484-7.667-7.964s3.667-8.023 7.667-8.023a5.527 5.527 0 014.203 1.787h.123V9.333h3.327zm-3.087 7.54c0-2.816-1.876-4.873-4.266-4.873s-4.447 2.057-4.447 4.873c0 2.817 2.027 4.794 4.447 4.794s4.266-2.02 4.266-4.804v.01z" fill="#4285F4"/><path d="M81.523.847v23.486H78V.847h3.523z" fill="#34A853"/><path d="M95.127 19.467l2.723 1.816a7.957 7.957 0 01-6.667 3.544c-4.536 0-7.926-3.514-7.926-8 0-4.754 3.42-8 7.533-8s6.17 3.3 6.837 5.086l.373.92-10.667 4.42c.817 1.607 2.087 2.424 3.874 2.424 1.786 0 3.013-.877 3.92-2.21zm-8.38-2.877l7.14-2.967c-.394-1-1.574-1.696-2.967-1.696a4.38 4.38 0 00-4.173 4.663z" fill="#EA4335"/></g><defs><clipPath id="clip0"><path fill="#fff" d="M0 0h249.667v32H0z"/></clipPath></defs></svg>